HIERARCHY
ROOT hip
{
  OFFSET 0 0 0
  CHANNELS 6 Xposition Yposition Zposition Zrotation Yrotation Xrotation
  JOINT abdomen
  {
    OFFSET 0 20.6881 -0.73152
    CHANNELS 3 Zrotation Xrotation Yrotation
    JOINT chest
    {
      OFFSET 0 11.7043 -0.48768
      CHANNELS 3 Zrotation Xrotation Yrotation
      JOINT neck
      {
        OFFSET 0 22.1894 -2.19456
        CHANNELS 3 Zrotation Xrotation Yrotation
        JOINT head
        {
          OFFSET -0.24384 7.07133 1.2192
          CHANNELS 3 Zrotation Xrotation Yrotation
          JOINT leftEye
          {
            OFFSET 4.14528 8.04674 8.04672
            CHANNELS 3 Zrotation Xrotation Yrotation
            End Site
            {
              OFFSET 1 0 0
            }
          }
          JOINT rightEye
          {
            OFFSET -3.6576 8.04674 8.04672
            CHANNELS 3 Zrotation Xrotation Yrotation
            End Site
            {
              OFFSET 1 0 0
            }
          }
        }
      }
      JOINT rCollar
      {
        OFFSET -2.68224 19.2634 -4.8768
        CHANNELS 3 Zrotation Xrotation Yrotation
        JOINT rShldr
        {
          OFFSET -8.77824 -1.95073 1.46304
          CHANNELS 3 Zrotation Xrotation Yrotation
          JOINT rForeArm
          {
            OFFSET -28.1742 -1.7115 0.48768
            CHANNELS 3 Zrotation Xrotation Yrotation
            JOINT rHand
            {
              OFFSET -22.5879 0.773209 7.07136
              CHANNELS 3 Zrotation Xrotation Yrotation
              JOINT rThumb1
              {
                OFFSET -1.2192 -0.487915 3.41376
                CHANNELS 3 Zrotation Xrotation Yrotation
                JOINT rThumb2
                {
                  OFFSET -3.37035 -0.52449 3.41376
                  CHANNELS 3 Zrotation Xrotation Yrotation
                  End Site
                  {
                    OFFSET -1.78271 -1.18214 1.43049
                  }
                }
              }
              JOINT rIndex1
              {
                OFFSET -7.75947 0.938293 5.60832
                CHANNELS 3 Zrotation Xrotation Yrotation
                JOINT rIndex2
                {
                  OFFSET -2.54057 -0.884171 1.56538
                  CHANNELS 3 Zrotation Xrotation Yrotation
                  End Site
                  {
                    OFFSET -1.62519 -0.234802 1.16502
                  }
                }
              }
              JOINT rMid1
              {
                OFFSET -8.24714 1.18213 3.41376
                CHANNELS 3 Zrotation Xrotation Yrotation
                JOINT rMid2
                {
                  OFFSET -3.10165 -0.590103 1.0647
                  CHANNELS 3 Zrotation Xrotation Yrotation
                  End Site
                  {
                    OFFSET -2.48547 -0.328903 0.83742
                  }
                }
              }
              JOINT rRing1
              {
                OFFSET -8.82822 0.546677 1.51678
                CHANNELS 3 Zrotation Xrotation Yrotation
                JOINT rRing2
                {
                  OFFSET -2.60934 -0.819778 -0.0198488
                  CHANNELS 3 Zrotation Xrotation Yrotation
                  End Site
                  {
                    OFFSET -2.33842 -0.294052 0.168128
                  }
                }
              }
              JOINT rPinky1
              {
                OFFSET -8.27202 -0.0477905 -0.4584
                CHANNELS 3 Zrotation Xrotation Yrotation
                JOINT rPinky2
                {
                  OFFSET -1.82734 -0.647385 -0.700984
                  CHANNELS 3 Zrotation Xrotation Yrotation
                  End Site
                  {
                    OFFSET -1.69225 -0.51767 -0.607171
                  }
                }
              }
            }
          }
        }
      }
      JOINT lCollar
      {
        OFFSET 2.68224 19.2634 -4.8768
        CHANNELS 3 Zrotation Xrotation Yrotation
        JOINT lShldr
        {
          OFFSET 8.77824 -1.95073 1.46304
          CHANNELS 3 Zrotation Xrotation Yrotation
          JOINT lForeArm
          {
            OFFSET 28.1742 -1.7115 0.48768
            CHANNELS 3 Zrotation Xrotation Yrotation
            JOINT lHand
            {
              OFFSET 22.5879 0.773209 7.07136
              CHANNELS 3 Zrotation Xrotation Yrotation
              JOINT lThumb1
              {
                OFFSET 1.2192 -0.487915 3.41376
                CHANNELS 3 Zrotation Xrotation Yrotation
                JOINT lThumb2
                {
                  OFFSET 3.37035 -0.52449 3.41376
                  CHANNELS 3 Zrotation Xrotation Yrotation
                  End Site
                  {
                    OFFSET 1.78271 -1.18214 1.43049
                  }
                }
              }
              JOINT lIndex1
              {
                OFFSET 7.75947 0.938293 5.60832
                CHANNELS 3 Zrotation Xrotation Yrotation
                JOINT lIndex2
                {
                  OFFSET 2.54057 -0.884171 1.56538
                  CHANNELS 3 Zrotation Xrotation Yrotation
                  End Site
                  {
                    OFFSET 1.62519 -0.234802 1.16502
                  }
                }
              }
              JOINT lMid1
              {
                OFFSET 8.24714 1.18213 3.41376
                CHANNELS 3 Zrotation Xrotation Yrotation
                JOINT lMid2
                {
                  OFFSET 3.10165 -0.590103 1.0647
                  CHANNELS 3 Zrotation Xrotation Yrotation
                  End Site
                  {
                    OFFSET 2.48547 -0.328903 0.83742
                  }
                }
              }
              JOINT lRing1
              {
                OFFSET 8.82822 0.546677 1.51678
                CHANNELS 3 Zrotation Xrotation Yrotation
                JOINT lRing2
                {
                  OFFSET 2.60934 -0.819778 -0.0198488
                  CHANNELS 3 Zrotation Xrotation Yrotation
                  End Site
                  {
                    OFFSET 2.33842 -0.294052 0.168128
                  }
                }
              }
              JOINT lPinky1
              {
                OFFSET 8.27202 -0.0477905 -0.4584
                CHANNELS 3 Zrotation Xrotation Yrotation
                JOINT lPinky2
                {
                  OFFSET 1.82734 -0.647385 -0.700984
                  CHANNELS 3 Zrotation Xrotation Yrotation
                  End Site
                  {
                    OFFSET 1.69225 -0.51767 -0.607171
                  }
                }
              }
            }
          }
        }
      }
    }
  }
  JOINT rButtock
  {
    OFFSET -8.77824 4.35084 1.2192
    CHANNELS 3 Zrotation Xrotation Yrotation
    JOINT rThigh
    {
      OFFSET 0 -1.70687 -2.19456
      CHANNELS 3 Zrotation Xrotation Yrotation
      JOINT rShin
      {
        OFFSET 0 -36.8199 0.73152
        CHANNELS 3 Zrotation Xrotation Yrotation
        JOINT rFoot
        {
          OFFSET 0.73152 -45.1104 -5.12064
          CHANNELS 3 Zrotation Xrotation Yrotation
          End Site
          {
            OFFSET -1.1221 -3.69964 12.103
          }
        }
      }
    }
  }
  JOINT lButtock
  {
    OFFSET 8.77824 4.35084 1.2192
    CHANNELS 3 Zrotation Xrotation Yrotation
    JOINT lThigh
    {
      OFFSET 0 -1.70687 -2.19456
      CHANNELS 3 Zrotation Xrotation Yrotation
      JOINT lShin
      {
        OFFSET 0 -36.8199 0.73152
        CHANNELS 3 Zrotation Xrotation Yrotation
        JOINT lFoot
        {
          OFFSET -0.73152 -45.1104 -5.12064
          CHANNELS 3 Zrotation Xrotation Yrotation
          End Site
          {
            OFFSET 1.1221 -3.69964 12.103
          }
        }
      }
    }
  }
}
MOTION
Frames:	7
Frame Time:	0.03333
0.0 0.0 0.0 0.0 0.0 0.0 0.0 0.0 0.0 0.0 0.0 0.0 0.0 0.0 0.0 0.0 0.0 0.0 0.0 0.0 0.0 0.0 0.0 0.0 0.0 0.0 0.0 0.0 0.0 0.0 0.0 0.0 0.0 0.0 0.0 0.0 0.0 0.0 0.0 0.0 0.0 0.0 0.0 0.0 0.0 0.0 0.0 0.0 0.0 0.0 0.0 0.0 0.0 0.0 0.0 0.0 0.0 0.0 0.0 0.0 0.0 0.0 0.0 0.0 0.0 0.0 0.0 0.0 0.0 0.0 0.0 0.0 0.0 0.0 0.0 0.0 0.0 0.0 0.0 0.0 0.0 0.0 0.0 0.0 0.0 0.0 0.0 0.0 0.0 0.0 0.0 0.0 0.0 0.0 0.0 0.0 0.0 0.0 0.0 0.0 0.0 0.0 0.0 0.0 0.0 0.0 0.0 0.0 0.0 0.0 0.0 0.0 0.0 0.0 0.0 0.0 0.0 0.0 0.0 0.0 0.0 0.0 0.0 0.0 0.0 0.0 0.0 0.0 0.0 0.0 0.0 0.0
0.2503 55.97 -0.1462 -15.926485 -62.098357 17.443542 1.143885 9.808265 173.314764 -3.713553 9.525535 -154.730552 -9.725957 24.63918 -87.747033 33.287312 16.633248 110.179947 0.003719 -0.0 -0.001051 -0.001971 0.0 -0.000497 -9.65207 34.835985 11.200104 117.363294 -58.955055 55.075867 114.712855 -72.294302 -35.438631 -113.065829 46.231148 99.043144 -78.030842 38.689219 42.412524 -146.025119 -30.860833 83.108267 5.362585 -9.172117 -2.721641 -112.816346 38.196276 89.286253 -154.142029 11.634531 139.428826 -163.225096 -4.794594 142.978796 0.001157 0.063856 0.019493 -156.340971 -19.608231 174.155578 25.923804 79.093903 10.822238 -148.069448 10.4778 -142.47787 159.21916 -49.390088 -170.714591 178.921504 9.57592 123.227783 -119.81603 82.219522 -115.944037 -158.009467 -31.622097 -141.408767 78.493852 38.701289 -42.741112 -33.133603 -31.428754 -19.521842 -10.210523 -18.050896 4.56463 64.493857 48.971829 -51.28884 0.056541 0.168054 -0.032142 163.731481 -6.173544 -143.494558 145.12329 1.973761 179.748229 -11.491471 22.34657 6.4295 -3.200052 9.007684 -2.916282 158.73128 52.375932 149.912599 -0.003242 0.000385 -0.003242 -30.928877 -40.388287 -180.0 -120.778171 -44.289409 -101.629505 167.46911 -11.548615 -150.871069 -0.014858 0.001864 -0.011144 92.45607 -51.99077 180.0 91.46124 0.721831 -164.305347 121.764592 73.924763 -56.348483
0.3524 55.9474 -0.35140000000000005 -15.095785 -61.942694 16.809803 1.180591 14.682812 -0.25169 2.372023 -14.639467 18.743758 -7.707827 29.027444 -115.807143 27.966603 29.834249 135.986678 -0.000664 -0.0 0.002398 -0.000518 -0.0 0.000319 -158.468207 -30.055547 166.919831 145.757694 -2.794443 -170.859392 177.082216 -7.738944 32.597974 -126.630092 40.775783 113.259859 -10.203461 9.662185 2.404666 59.694356 -67.886121 -3.458872 60.462829 -70.523128 15.711788 -165.694344 -29.984114 113.473085 -160.67192 -6.667983 143.245461 -147.962027 31.448969 134.125506 0.00041 -0.018532 -0.005695 6.067631 34.103056 5.681951 -144.261688 9.238038 -141.008459 -6.769611 -18.973792 -9.628981 9.651623 34.836283 -11.198699 -100.08653 -17.811299 -78.050941 3.3462 -4.878791 -92.257098 7.050653 38.566665 -3.441833 -0.48792 -0.483391 0.073444 38.537273 26.677955 -34.306874 138.765456 4.488334 -115.032045 63.776445 56.663452 -45.565657 158.522089 -0.191796 -142.146207 170.447796 -26.283846 -143.876927 73.383456 72.973443 -91.30047 3.275784 -62.278098 18.788908 152.201157 37.329893 147.58279 162.696154 55.76695 146.857041 -179.997174 75.750899 -0.002916 154.292962 28.911489 -89.725691 -98.878657 11.387717 133.023243 149.221133 -60.283981 65.755423 -0.0 -0.000125 -0.000468 92.323879 -52.450825 -177.062225 91.455611 -2.191691 -165.853788 141.063882 -21.715501 -111.544129
0.5001 55.95440000000001 -0.6102 -14.858736 -61.819694 16.634505 0.760062 10.013296 175.636925 -3.152485 9.648462 -157.419532 11.596878 21.907599 94.166491 -29.866153 5.6425 -68.35959 -0.003597 0.0 -0.002886 0.002735 0.0 0.001873 4.239449 -44.742775 -8.647418 127.313807 60.642129 -81.820121 -96.25631 -36.046517 65.229953 -165.129097 -34.792494 161.31488 -159.652855 2.600704 88.800064 99.701852 -59.428999 71.066596 -164.556266 -40.547462 122.456123 96.543318 -70.267209 41.230795 -160.340908 -5.644018 143.088716 -163.359444 -5.000457 142.988684 -0.016039 -1.323194 -0.41557 5.189629 -74.581222 -15.044929 -145.17405 12.069249 -141.819448 73.20807 84.111153 -35.092685 0.00025 -2e-05 6e-06 -36.674071 32.290695 -55.491091 -138.641126 69.422306 -95.010778 -162.214293 -23.776984 -144.158839 93.744064 37.96413 -53.548318 96.904341 -6.686371 -65.851288 19.17113 24.11459 -13.380279 23.250948 34.59531 -14.838009 154.142159 11.634448 -139.428509 7.427365 26.124758 -6.437616 0.015076 -1.323044 0.416569 -11.547773 -23.572587 2.838313 146.217566 15.438923 142.739457 24.239183 -39.104627 25.58505 179.973463 75.750295 0.021834 154.59687 28.609889 -89.144567 -105.493637 1.704662 -0.725434 56.218876 39.525947 54.047316 -0.000537 -0.000302 0.00069 90.189317 -51.888867 90.148958 166.743793 85.174788 73.655175 -12.68018 16.350093 131.754744
0.6542 55.9979 -0.9849 -14.361392 -61.572712 16.331861 0.630949 10.133061 176.41826 -2.917262 9.688664 -158.341872 11.159867 20.301656 84.945024 -29.011519 0.846871 -60.384882 -0.004109 -0.0 0.002043 -0.004109 -0.0 0.002043 -153.592082 -75.693539 -178.262038 170.547576 4.875707 -141.07916 -6.915106 -24.249148 106.767857 -19.105434 -63.121705 -20.741809 -121.364861 30.330535 71.958787 173.232536 -34.202004 77.070922 -69.681698 43.291684 57.342849 -87.045914 51.27455 63.836776 14.346258 -43.499311 -2.875084 -156.089188 15.620189 139.837587 -69.298852 72.945503 87.017811 -80.962834 83.124394 89.896745 -75.779136 -51.670319 -74.248962 -159.338723 54.346949 -148.514901 155.445768 -3.134519 -161.757722 28.242797 25.649941 35.315814 -70.336059 -59.234382 65.582609 -167.101224 -11.800271 -147.081411 94.518939 37.864422 -54.092237 127.57116 -17.565068 -75.934496 138.493601 4.89559 -114.863503 119.699341 45.767025 -94.983425 -0.541123 -1.589889 0.295563 170.281241 -26.251078 -144.301547 0.009486 -0.872236 0.271695 -10.400171 0.042022 0.066626 157.360076 57.357911 150.523492 78.464256 -53.148228 77.291788 -179.830886 75.750207 -0.130345 152.658713 28.279377 92.428568 109.561008 -12.656279 53.064399 99.700434 38.955445 159.347975 179.988168 75.749894 0.008096 -141.699822 -11.27999 9.652938 103.535982 75.082865 -6.592245 1.716998 -1.526066 -85.554108
0.8444999999999999 56.08840000000001 -1.4546 -14.085498 -61.279444 16.207816 0.689395 15.047371 -0.151246 2.141865 -14.62459 18.246368 -10.074443 21.900446 -71.811386 34.584766 7.560394 96.09774 0.002233 0.0 0.004281 0.00233 0.0 0.002224 -155.613638 -4.236379 161.991215 138.541995 -26.935082 171.80286 -22.332346 -9.685988 109.617777 -34.858227 -79.518112 -43.505398 114.538523 -50.245266 55.721909 -32.877242 -8.084037 -12.886729 -159.786814 -32.611021 122.690622 -132.854527 31.930749 108.418831 0.540714 -1.590033 -0.294681 -7.31279 26.195902 6.028514 -71.927304 72.973699 89.772082 -80.943299 83.18573 89.873986 -44.841469 -48.0319 -43.620333 -160.385597 58.361474 -149.089455 -1.990479 -14.052936 2.880632 -63.581998 19.595595 -32.157038 172.88546 36.029899 -51.70579 -153.109033 -40.115901 -136.991907 4.904698 4.762396 -0.951072 -10.655127 -12.714894 4.712834 -12.21625 -21.784725 5.121621 -4.510916 13.20723 -1.747847 -1.280106 -3.803417 0.67846 7.318504 26.19544 -6.024601 0.006002 3.473953 -1.091121 156.341227 -12.544299 -173.350389 135.068968 -13.383381 132.468722 25.201819 -40.378287 26.97724 179.986283 75.749634 0.011286 153.856586 28.104407 92.360078 110.001325 -4.022981 137.798944 -107.142456 80.389831 -138.604435 0.00083 -0.001105 0.001245 91.714164 -54.457492 178.462007 92.358029 1.953863 171.964545 2.076525 -2.752224 115.905395
1.0403 56.241699999999994 -2.0199000000000003 -13.674256 -60.799692 16.038296 0.249241 10.359443 175.625036 -2.958892 9.702827 -157.690805 11.344585 22.217677 95.998131 -30.917797 6.987221 -70.309884 0.0014 -0.0 -0.001465 0.002064 0.0 0.001817 -82.488742 68.313051 85.607815 70.747816 -26.989526 73.597477 -95.513528 -37.585206 78.534955 -165.688898 -30.582595 158.186701 -68.482745 37.953727 35.659416 -6.695911 -7.866564 26.736698 -8.570566 12.50952 5.44872 -162.196217 -12.458845 110.167047 -0.570554 1.648402 0.322516 -166.497993 -14.79074 144.125138 -145.122716 1.974935 -179.747843 11.962956 39.411266 -4.517374 -144.942464 11.339781 -141.618146 -74.176333 -53.029525 -73.877473 -2.049534 -14.550027 2.97719 96.710468 -0.004585 -149.465392 179.376111 4.923588 90.552266 11.038861 46.140007 -4.632366 78.030661 38.689628 -42.412556 -116.364287 -55.185914 -47.717317 162.636181 -37.465341 -122.65036 -119.259203 -70.731487 -62.056894 0.057784 0.168027 -0.030197 -3.165863 0.193878 -0.001169 -0.004284 1.771345 -0.556763 -0.087348 -79.149338 20.361703 -5.660471 16.87253 -5.08877 152.947694 30.484394 147.366548 179.994303 75.749074 0.004687 156.319165 28.972602 11.566367 136.089039 72.988882 155.588313 -15.017867 -57.0153 51.148932 -0.0 0.000942 0.002023 93.471268 -54.288674 -87.180266 -158.13745 -86.698538 -80.84162 -4.00599 5.883579 116.200312
